<svg xmlns="http://www.w3.org/2000/svg" viewBox="0 0 26.46 26.6"><defs><style>.cls-1{fill:#734b24;}</style></defs><title>impressora</title><g id="Camada_2" data-name="Camada 2"><g id="Camada_1-2" data-name="Camada 1"><path class="cls-1" d="M21.57,12.92H4.88a.38.38,0,0,1-.38-.38V.38A.38.38,0,0,1,4.88,0h11a.39.39,0,0,1,.27.11l5.68,5.68a.39.39,0,0,1,.11.27v6.48A.38.38,0,0,1,21.57,12.92ZM5.26,12.16H21.19V6.22L15.73.76H5.26Z"/><path class="cls-1" d="M21.57,26.6H4.88a.38.38,0,0,1-.38-.38V17.3a.39.39,0,0,1,.38-.39H21.57a.39.39,0,0,1,.38.39v8.92A.38.38,0,0,1,21.57,26.6ZM5.26,25.84H21.19V17.68H5.26Z"/><path class="cls-1" d="M26.08,20.61H21.57a.38.38,0,0,1-.38-.38V17.68H5.26v2.55a.38.38,0,0,1-.38.38H.38A.38.38,0,0,1,0,20.23V8.44a.38.38,0,0,1,.38-.38h4.5a.38.38,0,0,1,.38.38v3.72H21.19V8.44a.38.38,0,0,1,.38-.38h4.51a.38.38,0,0,1,.38.38V20.23A.38.38,0,0,1,26.08,20.61ZM22,19.85H25.7v-11H22v3.72a.38.38,0,0,1-.38.38H4.88a.38.38,0,0,1-.38-.38V8.82H.76v11H4.5V17.3a.39.39,0,0,1,.38-.39H21.57a.39.39,0,0,1,.38.39Z"/><path class="cls-1" d="M19.64,19.91H6.8a.38.38,0,1,1,0-.76H19.64a.38.38,0,0,1,0,.76Z"/><path class="cls-1" d="M19.64,21.83H6.8a.38.38,0,1,1,0-.76H19.64a.38.38,0,0,1,0,.76Z"/><path class="cls-1" d="M19.64,23.87H6.8a.38.38,0,1,1,0-.76H19.64a.38.38,0,0,1,0,.76Z"/><path class="cls-1" d="M21.57,6.44H15.89a.38.38,0,0,1-.38-.38V.38A.38.38,0,0,1,15.75,0a.37.37,0,0,1,.41.08l5.68,5.68a.41.41,0,0,1,.09.42A.39.39,0,0,1,21.57,6.44Zm-5.3-.76h4.39L16.27,1.3Z"/><path class="cls-1" d="M24.94,11.1a1,1,0,1,0-1,1A1,1,0,0,0,24.94,11.1Z"/></g></g></svg>