<svg xmlns="http://www.w3.org/2000/svg" xmlns:xlink="http://www.w3.org/1999/xlink" viewBox="0 0 156.28 45.5"><defs><style>.cls-1{fill:none;}.cls-2{isolation:isolate;}.cls-3{fill:#ea8e27;}.cls-11,.cls-4{fill:#734b24;}.cls-5{clip-path:url(#clip-path);}.cls-6{clip-path:url(#clip-path-2);}.cls-7{mix-blend-mode:multiply;}.cls-12,.cls-8{fill:#524740;}.cls-9{font-size:34.63px;fill:#23160e;font-family:Monkey;}.cls-10{fill:#4e290e;}.cls-11{letter-spacing:0em;}.cls-12{font-size:5.7px;font-family:Gotham-Light, Gotham;font-weight:300;letter-spacing:1.06em;}.cls-13{letter-spacing:1.05em;}.cls-14{letter-spacing:1.08em;}</style><clipPath id="clip-path" transform="translate(0 -4.62)"><path class="cls-1" d="M26.11,0V48.28H46.35V4S26.11.2,26.11,0Z"/></clipPath><clipPath id="clip-path-2" transform="translate(0 -4.62)"><path class="cls-1" d="M5.88,0V48.28H26.11v-40l6-6.43S5.88.2,5.88,0Z"/></clipPath></defs><title>logo-macacos</title><g class="cls-2"><g id="Camada_2" data-name="Camada 2"><g id="Camada_1-2" data-name="Camada 1"><ellipse class="cls-3" cx="7.91" cy="15.42" rx="7.91" ry="7.98"/><ellipse class="cls-4" cx="44.65" cy="16.42" rx="7.91" ry="7.98"/><g class="cls-5"><path class="cls-3" d="M44.75,21.19A12.17,12.17,0,0,0,29.3,9.46a17.59,17.59,0,0,1,4.35-4.67,14,14,0,0,0-7.73,3.76,7.62,7.62,0,0,1,2.9-3.93c-2.4.45-5.37,2.14-6.57,4.44a12.58,12.58,0,0,0-2.9-.35,12.17,12.17,0,0,0-5.68,22.93A12.17,12.17,0,1,0,37.53,35a12.3,12.3,0,0,0-.27-2.59A12.17,12.17,0,0,0,44.75,21.19Z" transform="translate(0 -4.62)"/></g><g class="cls-6"><path class="cls-4" d="M44.75,21.19A12.17,12.17,0,0,0,29.3,9.46a17.59,17.59,0,0,1,4.35-4.67,14,14,0,0,0-7.73,3.76,7.62,7.62,0,0,1,2.9-3.93c-2.4.45-5.37,2.14-6.57,4.44a12.58,12.58,0,0,0-2.9-.35,12.17,12.17,0,0,0-5.68,22.93A12.17,12.17,0,1,0,37.53,35a12.3,12.3,0,0,0-.27-2.59A12.17,12.17,0,0,0,44.75,21.19Z" transform="translate(0 -4.62)"/></g><g class="cls-7"><path class="cls-8" d="M30.19,9.47A5.71,5.71,0,0,0,28,9.8c-.19-1.4.51-2.55,1.67-3.81a13,13,0,0,0-3.54,2.38V47.18c4.17-.58,7.44-5.72,7.44-12a17.72,17.72,0,0,0-.19-2.56c3-1.82,5.07-6.12,5.07-11.13C38.43,14.86,34.74,9.47,30.19,9.47Z" transform="translate(0 -4.62)"/><path class="cls-8" d="M26.11,8.36l-.18.16a7.43,7.43,0,0,1,1.19-2.3c-1.62.45-3.1.85-3.91,3.13a5.66,5.66,0,0,0-2-.35C16.7,9,13,14.56,13,21.21c0,4.62,1.78,8.63,4.39,10.65a17.17,17.17,0,0,0-.33,3.33c0,6.65,3.69,12.05,8.24,12.05a5.16,5.16,0,0,0,.79-.06Z" transform="translate(0 -4.62)"/></g><text class="cls-9" transform="translate(61.88 35.43)">MA<tspan class="cls-10" x="25.97" y="0">CA</tspan><tspan class="cls-11" x="51.95" y="0">COS</tspan></text><text class="cls-12" transform="translate(62.5 44.54)">C<tspan class="cls-13" x="10.25" y="0">OW</tspan><tspan class="cls-14" x="33.28" y="0">ORKING</tspan></text></g></g></g></svg>