<svg xmlns="http://www.w3.org/2000/svg" viewBox="0 0 351.65 276.38"><title>logo-macacos-outline</title><g id="Camada_2" data-name="Camada 2"><g id="Camada_1-2" data-name="Camada 1"><path d="M295.1,49.59a55.88,55.88,0,0,0-20.73,4,78.78,78.78,0,0,0-57.66-25c-1.83,0-3.66.07-5.46.19a41.51,41.51,0,0,0-9.47-1.12c-2.57,0-3.12-.19-3.68-.11A115,115,0,0,1,223.69,1.11a90.87,90.87,0,0,0-48.93,23.26c-.42.39-.85.77-1.27,1.17.38-1.19.8-2.37,1.27-3.53v0h0a49.5,49.5,0,0,1,8.13-13.45l.23-.27.82-.93.47-.51.75-.79.6-.6c.23-.24.47-.47.71-.7l.71-.65.67-.62.81-.69.63-.53,1-.76.53-.41c.51-.39,1-.76,1.55-1.12h0c-.63.12-1.27.26-1.91.41l-.45.1c-13.53,3.2-29.15,12-37.6,24-3.93-.18-8.32.35-11.57.35a40.88,40.88,0,0,0-12.07,1.85A78.69,78.69,0,0,0,77.62,47.24a55.79,55.79,0,0,0-21.07-4.12C25.36,43.12,0,68.69,0,100.14s25.36,57,56.55,57a55.83,55.83,0,0,0,13.08-1.56,79.32,79.32,0,0,0,24.31,19.92,79,79,0,0,0,75.94,100.87c1.64,0,3.27-.07,4.88-.17a79,79,0,0,0,72.34-95.66,79.05,79.05,0,0,0,28.58-20.38,55.9,55.9,0,0,0,19.42,3.47c31.19,0,56.55-25.58,56.55-57S326.29,49.59,295.1,49.59ZM174.76,10.91v1.66a53.08,53.08,0,0,0-5.33,11.7l-5,15.93,6.08-5.86V267.15c-.95.08-1.91.14-2.87.14-27.07,0-49.51-27.3-49.51-68a108,108,0,0,1,2-20.77l.52-2.68-2.14-1.66c-9.81-7.59-17.41-19.53-22-33.78a57.26,57.26,0,0,0,4.58-75.3c9-18.91,23.58-31.47,39.67-31.47a23.76,23.76,0,0,1,9.54,1.49l1-1.45.52.13,1.54-3,0,0,4-5.49-.32-.1A57,57,0,0,1,174.76,10.91ZM90.12,68.15a113.5,113.5,0,0,0-7.2,40.37,115.39,115.39,0,0,0,3.25,27.37,46,46,0,0,1-18.62,9.55A74.69,74.69,0,0,1,74.13,57,46.36,46.36,0,0,1,90.12,68.15Zm1.61,40.37a105.75,105.75,0,0,1,4.79-31.71,46.89,46.89,0,0,1-3,51.3A109,109,0,0,1,91.73,108.52Zm25.44-76.37c-8.93,5.79-16.66,14.75-22.51,25.9A56.87,56.87,0,0,0,81.9,49.19,74.49,74.49,0,0,1,117.17,32.15ZM56.55,146.78c-25.46,0-46.18-20.93-46.18-46.64S31.09,53.49,56.55,53.49a45.41,45.41,0,0,1,13.26,2,79,79,0,0,0-6.71,90.85A45.6,45.6,0,0,1,56.55,146.78Zm38.56,50.57A74.67,74.67,0,0,1,98,176.69l1-3.32-3-1.62A75,75,0,0,1,74.1,154.33a56.34,56.34,0,0,0,15.27-7.8C94.23,160,101.65,171.45,111,179.45a117.24,117.24,0,0,0-1.68,19.85c0,28,10,50.61,25.1,63.87A74.84,74.84,0,0,1,95.11,197.35ZM270.21,55.43a57.11,57.11,0,0,0-18.07,14.16C245.53,53,235,40,222.38,33.06A74.48,74.48,0,0,1,270.21,55.43Zm-21.3,51.19a47.44,47.44,0,0,1,1.09-10,109.33,109.33,0,0,1,.86,13.68q0,4.33-.33,8.57A46.89,46.89,0,0,1,248.91,106.62Zm7.18-24.94a46.65,46.65,0,0,1,21.05-18.05,74.71,74.71,0,0,1,1.15,86.43,46.58,46.58,0,0,1-20.93-16.6,116.49,116.49,0,0,0,2.31-23.2A114.09,114.09,0,0,0,256.09,81.68ZM207.67,9.39a119.5,119.5,0,0,0-15.81,19.8l-6,9.39,5.06-1.41a64.2,64.2,0,0,1,10.87-.72c19.47,0,36.32,17.12,44.25,41.88a57.24,57.24,0,0,0,1.43,59c-4.83,18.47-14.56,33.59-27.41,41.42l-2.49,1.52.43,2.89a110.17,110.17,0,0,1,1.18,16c0,37-16,62.46-40.15,66.77V26.25A86.85,86.85,0,0,1,207.67,9.39Zm37.79,167.24L242.2,178l.75,3.46a74.74,74.74,0,0,1-40.2,83C218.51,251.83,228,228.82,228,199.1a119,119,0,0,0-.89-14.45c12-8.31,21.43-22.15,27-38.85a56.85,56.85,0,0,0,17.49,12.64A74.79,74.79,0,0,1,245.46,176.63Zm49.64-23.36a45.74,45.74,0,0,1-12.67-1.8,79,79,0,0,0-1.12-89.38A45.57,45.57,0,0,1,295.1,60c25.46,0,46.19,20.93,46.19,46.66S320.56,153.27,295.1,153.27Z" style="fill:#f4f2f0"/></g></g></svg>