<svg xmlns="http://www.w3.org/2000/svg" viewBox="0 0 23.71 25.77"><defs><style>.cls-1{fill:#734b24;}</style></defs><title>recibo</title><g id="Camada_2" data-name="Camada 2"><g id="Camada_1-2" data-name="Camada 1"><path class="cls-1" d="M14.87,25.77a.51.51,0,0,1-.36-.15l-1.15-1.15-1.15,1.15a.51.51,0,0,1-.72,0l-1.15-1.15L9.2,25.62a.52.52,0,0,1-.73,0L7.33,24.47,6.18,25.62a.51.51,0,0,1-.72,0L4.31,24.47,3.16,25.62a.51.51,0,0,1-.72,0L1.29,24.47l-.42.42A.52.52,0,0,1,.31,25,.51.51,0,0,1,0,24.53V2.14A2.14,2.14,0,0,1,2.14,0H21.57a2.14,2.14,0,0,1,2.14,2.14V24.53a.52.52,0,0,1-.32.47.49.49,0,0,1-.55-.11l-.42-.42-1.15,1.15a.51.51,0,0,1-.72,0L19.4,24.47l-1.15,1.15a.51.51,0,0,1-.72,0l-1.15-1.15-1.15,1.15A.51.51,0,0,1,14.87,25.77Zm-4.53-2.53a.51.51,0,0,1,.36.15l1.15,1.15L13,23.39a.51.51,0,0,1,.72,0l1.15,1.15L16,23.39a.51.51,0,0,1,.72,0l1.15,1.15L19,23.39a.51.51,0,0,1,.72,0l1.15,1.15,1.15-1.15a.5.5,0,0,1,.63-.07V2.14A1.12,1.12,0,0,0,21.57,1H2.14A1.12,1.12,0,0,0,1,2.14V23.32a.5.5,0,0,1,.63.07L2.8,24.54,4,23.39a.51.51,0,0,1,.72,0l1.15,1.15L7,23.39a.51.51,0,0,1,.72,0l1.15,1.15L10,23.39A.51.51,0,0,1,10.34,23.24Z"/><path class="cls-1" d="M18.68,6.89H3.82a.51.51,0,0,1-.51-.51.51.51,0,0,1,.51-.51H18.68a.51.51,0,0,1,.51.51A.51.51,0,0,1,18.68,6.89Z"/><path class="cls-1" d="M14.15,11.14H3.82a.51.51,0,0,1-.51-.51.51.51,0,0,1,.51-.51H14.15a.51.51,0,0,1,.51.51A.51.51,0,0,1,14.15,11.14Z"/><path class="cls-1" d="M14.15,15.45H3.82a.51.51,0,0,1,0-1H14.15a.51.51,0,0,1,0,1Z"/><path class="cls-1" d="M14.15,19.76H3.82a.51.51,0,0,1,0-1H14.15a.51.51,0,0,1,0,1Z"/><path class="cls-1" d="M19.81,11.14H17.55a.51.51,0,0,1-.51-.51.5.5,0,0,1,.51-.51h2.26a.5.5,0,0,1,.51.51A.51.51,0,0,1,19.81,11.14Z"/><path class="cls-1" d="M19.81,15.45H17.55a.51.51,0,0,1,0-1h2.26a.51.51,0,1,1,0,1Z"/><path class="cls-1" d="M19.81,19.76H17.55a.51.51,0,0,1,0-1h2.26a.51.51,0,0,1,0,1Z"/></g></g></svg>