<svg xmlns="http://www.w3.org/2000/svg" viewBox="0 0 18.73 24.28"><defs><style>.cls-1{fill:#734b24;}</style></defs><title>telefone</title><g id="Camada_2" data-name="Camada 2"><g id="Camada_1-2" data-name="Camada 1"><path class="cls-1" d="M13.61,24.28c-1.6,0-7.12-.53-11.26-7.31A16,16,0,0,1,.08,7C.34,4.38,1.23,2.3,1.76,2L4.51.27A1.86,1.86,0,0,1,7.06.89l0,.06L8.9,5.27A1.87,1.87,0,0,1,8.27,7.8L6.13,9.12a1.85,1.85,0,0,1-1,.28h0a1.63,1.63,0,0,1-.31,0,9.36,9.36,0,0,0,1.25,5.1,8.81,8.81,0,0,0,4,3.36,2,2,0,0,1,.74-1L13,15.54a1.82,1.82,0,0,1,1-.28,1.84,1.84,0,0,1,1.57.87l2.9,3.65,0,0a1.89,1.89,0,0,1-.61,2.57L15.22,24A3.52,3.52,0,0,1,13.61,24.28ZM2.22,2.7A9.89,9.89,0,0,0,.91,7.28a15,15,0,0,0,2.17,9.24c3.91,6.4,9.05,6.9,10.53,6.9a3.39,3.39,0,0,0,1.17-.14l2.63-1.62a1,1,0,0,0,.44-.63,1,1,0,0,0-.1-.74l-2.9-3.65,0,0a1,1,0,0,0-.86-.48,1,1,0,0,0-.52.15L11.3,17.59a1.45,1.45,0,0,0-.48.87.4.4,0,0,1-.2.3.43.43,0,0,1-.35,0,9.61,9.61,0,0,1-4.9-3.89A10.26,10.26,0,0,1,4,8.73a.46.46,0,0,1,.23-.33.43.43,0,0,1,.4,0,1,1,0,0,0,1,0L7.83,7.07a1,1,0,0,0,.32-1.39l0,0L6.32,1.31A1,1,0,0,0,5.48.86,1,1,0,0,0,5,1Z"/><path class="cls-1" d="M11.61,20.82a.43.43,0,0,1-.36-.21l-1.21-2a.43.43,0,0,1,.14-.59.42.42,0,0,1,.58.14l1.22,2a.43.43,0,0,1-.14.59A.48.48,0,0,1,11.61,20.82Z"/><path class="cls-1" d="M4.51,9.19A.43.43,0,0,1,4.15,9L2.93,7a.44.44,0,0,1,.14-.59.43.43,0,0,1,.59.15l1.21,2a.42.42,0,0,1-.14.59A.36.36,0,0,1,4.51,9.19Z"/></g></g></svg>